<svg width="268" height="268" viewBox="0 0 268 268" fill="none" xmlns="http://www.w3.org/2000/svg">
<path d="M236.787 219.394C250.52 202.871 260.072 183.283 264.633 162.288C269.195 141.293 268.633 119.508 262.995 98.7762C257.357 78.0443 246.808 58.9753 232.242 43.1823C217.675 27.3893 199.519 15.3371 179.31 8.04498C159.1 0.752901 137.432 -1.56443 116.137 1.28902C94.8423 4.14247 74.5482 12.0828 56.9714 24.4382C39.3945 36.7936 25.052 53.2006 15.1572 72.2714C5.26233 91.3421 0.106233 112.516 0.125051 134C0.132273 165.233 11.1386 195.466 31.2127 219.394L31.0215 219.556C31.6909 220.359 32.4559 221.048 33.1444 221.842C34.005 222.827 34.9326 223.754 35.8219 224.71C38.4994 227.617 41.2534 230.41 44.1412 233.03C45.021 233.833 45.9294 234.579 46.8187 235.344C49.8787 237.983 53.0248 240.488 56.2856 242.822C56.7064 243.109 57.0889 243.482 57.5096 243.778V243.663C79.906 259.424 106.624 267.882 134.01 267.882C161.396 267.882 188.113 259.424 210.51 243.663V243.778C210.93 243.482 211.303 243.109 211.734 242.822C214.985 240.479 218.14 237.983 221.2 235.344C222.09 234.579 222.998 233.823 223.878 233.03C226.766 230.4 229.52 227.617 232.197 224.71C233.087 223.754 234.005 222.827 234.875 221.842C235.554 221.048 236.328 220.359 236.998 219.547L236.787 219.394ZM134 57.5005C142.511 57.5005 150.83 60.0242 157.907 64.7525C164.983 69.4809 170.499 76.2014 173.756 84.0644C177.013 91.9273 177.865 100.579 176.204 108.927C174.544 117.274 170.446 124.941 164.428 130.959C158.41 136.977 150.742 141.076 142.395 142.736C134.048 144.396 125.396 143.544 117.533 140.287C109.67 137.03 102.949 131.515 98.2209 124.439C93.4925 117.362 90.9688 109.042 90.9688 100.532C90.9688 89.1191 95.5024 78.174 103.572 70.104C111.642 62.0341 122.587 57.5005 134 57.5005ZM57.567 219.394C57.7329 206.838 62.8354 194.852 71.7707 186.029C80.706 177.207 92.7556 172.257 105.313 172.25H162.688C175.245 172.257 187.294 177.207 196.229 186.029C205.165 194.852 210.267 206.838 210.433 219.394C189.461 238.292 162.231 248.751 134 248.751C105.769 248.751 78.5391 238.292 57.567 219.394Z" fill="black"/>
</svg>
