<svg width="59" height="45" viewBox="0 0 59 45" fill="none" xmlns="http://www.w3.org/2000/svg">
<path d="M54.7778 0.819458H4.22223C3.2645 0.819458 2.346 1.20444 1.66878 1.88972C0.99157 2.575 0.611115 3.50443 0.611115 4.47356V41.0146C0.611115 41.9837 0.99157 42.9131 1.66878 43.5984C2.346 44.2837 3.2645 44.6687 4.22223 44.6687H54.7778C55.7355 44.6687 56.654 44.2837 57.3312 43.5984C58.0084 42.9131 58.3889 41.9837 58.3889 41.0146V4.47356C58.3889 3.50443 58.0084 2.575 57.3312 1.88972C56.654 1.20444 55.7355 0.819458 54.7778 0.819458ZM51.9972 41.0146H7.21945L19.8583 27.7867L17.2583 25.2471L4.22223 38.8952V7.25068L26.6653 29.8513C27.3419 30.5319 28.2571 30.9139 29.2111 30.9139C30.1651 30.9139 31.0804 30.5319 31.7569 29.8513L54.7778 6.68429V38.6577L41.4889 25.2106L38.9431 27.7867L51.9972 41.0146ZM6.5875 4.47356H51.8528L29.2111 27.2569L6.5875 4.47356Z" fill="black"/>
</svg>
