<svg width="47" height="58" viewBox="0 0 47 58" fill="none" xmlns="http://www.w3.org/2000/svg">
<path d="M23.5 31.3894C27.9873 31.3894 31.625 27.7084 31.625 23.1677C31.625 18.6269 27.9873 14.9459 23.5 14.9459C19.0127 14.9459 15.375 18.6269 15.375 23.1677C15.375 27.7084 19.0127 31.3894 23.5 31.3894Z" stroke="black" stroke-width="2" stroke-linecap="round" stroke-linejoin="round"/>
<path d="M23.5 1.24304C17.7536 1.24304 12.2426 3.55295 8.17936 7.66461C4.11607 11.7763 1.83334 17.3529 1.83334 23.1676C1.83334 28.3528 2.92209 31.7456 5.89584 35.5002L23.5 56.0545L41.1042 35.5002C44.0779 31.7456 45.1667 28.3528 45.1667 23.1676C45.1667 17.3529 42.8839 11.7763 38.8206 7.66461C34.7574 3.55295 29.2464 1.24304 23.5 1.24304V1.24304Z" stroke="black" stroke-width="2" stroke-linecap="round" stroke-linejoin="round"/>
</svg>
