<svg width="23" height="23" viewBox="0 0 23 23" fill="none" xmlns="http://www.w3.org/2000/svg">
<path d="M20.8885 22.1426L13.0303 14.5213C11.3443 15.6836 9.26947 16.1893 7.21704 15.9382C5.16461 15.687 3.2844 14.6973 1.94903 13.1652C0.61367 11.6331 -0.0793793 9.67042 0.00724132 7.66616C0.0938619 5.6619 0.953831 3.76234 2.41671 2.34396C3.8792 0.924957 5.83811 0.0905839 7.90515 0.00622682C9.9722 -0.0781303 11.9965 0.593686 13.5767 1.88851C15.157 3.18333 16.1779 5.00664 16.4371 6.99702C16.6962 8.9874 16.1747 10.9995 14.976 12.6346L22.8341 20.256L20.8898 22.1413L20.8885 22.1426V22.1426ZM8.24946 2.66662C6.98454 2.66634 5.75818 3.08885 4.77701 3.86298C3.79584 4.63711 3.11982 5.71552 2.86286 6.91654C2.60591 8.11755 2.78371 9.36774 3.36633 10.4565C3.94895 11.5452 4.90076 12.4059 6.06139 12.8936C7.22203 13.3813 8.52055 13.4661 9.73816 13.1339C10.9558 12.8016 12.0181 12.0725 12.746 11.0694C13.474 10.0663 13.8232 8.85051 13.7347 7.62693C13.6462 6.40334 13.1255 5.24673 12.2603 4.35196L13.0922 5.15196L12.1545 4.24529L12.138 4.22929C11.6286 3.73235 11.0227 3.33835 10.3552 3.07011C9.68772 2.80187 8.97199 2.66473 8.24946 2.66662V2.66662Z" fill="black"/>
</svg>
