<svg width="57" height="58" viewBox="0 0 57 58" fill="none" xmlns="http://www.w3.org/2000/svg">
<path d="M24.5838 13.0893L15.4215 2.38734C14.3652 1.15408 12.4288 1.15957 11.2019 2.40379L3.6673 10.0418C1.4248 12.3137 0.782925 15.6874 2.08022 18.3923C9.83043 34.6301 22.772 47.7441 38.8079 55.6093C41.4783 56.9221 44.8096 56.2725 47.0521 54.0006L54.6571 46.2914C55.8894 45.0444 55.8921 43.0739 54.6625 42.0051L44.0458 32.7831C42.9354 31.8184 41.2102 31.9444 40.0971 33.0736L36.4029 36.8172C36.2138 37.0178 35.9649 37.15 35.6943 37.1935C35.4237 37.2371 35.1465 37.1896 34.9052 37.0584C28.8668 33.5397 23.8579 28.4645 20.3885 22.3497C20.2586 22.1051 20.2116 21.8241 20.2546 21.5499C20.2977 21.2756 20.4285 21.0232 20.6269 20.8314L24.3102 17.1015C25.4261 15.9669 25.5479 14.2129 24.5838 13.0865V13.0893Z" stroke="black" stroke-width="2" stroke-linecap="round" stroke-linejoin="round"/>
</svg>
